:SAMPLES-PER-SECOND 30
:FULLY-SPECIFIED
:DEGREES
740
root  -54.8976 38.9256 5.95045 174.512 -85.9592 -177.511
RightUpLeg  -24.7368 -1.84641 -6.11899
RightLeg  28.6844 -1.81079 -1.30876
RightFoot  -1.91333 -0.853289 9.85767
RightToes  -5.8209e-011 0 -3.6325e-017
Spine  25.2215 -1.31903 4.5747
Spine1  7.73388 2.22357 -9.53224
HEad  -23.4012 -3.65165 1.43645
LeftShoulder1  1.76541 -5.31655 -12.9828
LeftArm  -23.1123 -57.7142 -36.5277
LeftForeArm  2.49794 -27.0038 -5.68129
LeftHand  -0.127843 3.88706 9.00718
RightShoulder  0.823324 2.71385 5.48353
RightArm  -23.535 68.1005 24.8634
RightForeArm  -21.9055 3.98723 1.16571
RightHand  -0.0699999 4.97433 -1.07813
LeftUpLeg  -21.7842 6.98012 -1.93895
LeftLeg  19.5607 -11.163 -4.15991
LeftFoot  6.23771 -0.76915 4.72595
LeftToes  -8.31281e-010 4.41007e-011 3.74621e-011
741
root  -55.2338 38.9909 5.95714 179.618 -86.7268 177.638
RightUpLeg  -23.1885 -2.40149 -6.09227
RightLeg  22.4525 0.0476155 -0.191842
RightFoot  3.33987 -1.234 10.1696
RightToes  -5.8209e-011 0 -3.6325e-017
Spine  25.9531 -1.29965 4.28792
Spine1  7.57046 2.08445 -8.89433
HEad  -24.008 -4.38774 1.07044
LeftShoulder1  1.90515 -6.08425 -12.8419
LeftArm  -23.7127 -59.8124 -36.2452
LeftForeArm  0.0988828 -24.296 -5.18245
LeftHand  -0.134569 3.33536 6.92144
RightShoulder  0.797103 3.23118 3.86884
RightArm  -25.5832 67.9448 22.9587
RightForeArm  -24.3376 2.24862 0.829691
RightHand  0.00733151 4.67592 -0.234725
LeftUpLeg  -21.4764 5.87365 -2.38474
LeftLeg  19.3817 -10.6333 -3.96196
LeftFoot  6.03854 -0.778532 4.8502
LeftToes  -8.31281e-010 4.41007e-011 3.74621e-011
742
root  -55.5127 39.0491 5.99017 -179.032 -87.7685 177.187
RightUpLeg  -22.9205 -5.16528 -5.0102
RightLeg  20.1247 1.95905 0.603155
RightFoot  7.19631 -0.575943 3.6645
RightToes  -5.8209e-011 0 -3.6325e-017
Spine  26.1182 -1.57553 5.06443
Spine1  7.38536 1.60296 -8.05161
HEad  -24.7687 -5.35647 1.28638
LeftShoulder1  1.97277 -6.8287 -11.9855
LeftArm  -24.014 -61.3674 -36.0199
LeftForeArm  -5.21755 -21.801 -4.79443
LeftHand  -0.0959842 4.09465 7.13018
RightShoulder  0.799442 3.53363 3.32689
RightArm  -27.1403 68.5837 20.9437
RightForeArm  -26.6162 -0.108056 0.77485
RightHand  0.0960879 5.54561 0.722053
LeftUpLeg  -22.1641 4.9755 -2.67441
LeftLeg  19.5443 -10.7093 -3.86725
LeftFoot  5.95944 -0.815032 5.11481
LeftToes  -8.31281e-010 4.41007e-011 3.74621e-011
743
root  -55.7315 39.0344 5.99908 -173.417 -89.0033 171.974
RightUpLeg  -21.8801 -7.68396 -4.83079
RightLeg  18.796 1.12935 0.221832
RightFoot  5.53769 -0.336165 2.53344
RightToes  -5.8209e-011 0 -3.6325e-017
Spine  26.3028 -1.9924 5.90601
Spine1  7.87162 1.34977 -8.24847
HEad  -25.9903 -6.9124 2.41236
LeftShoulder1  1.91969 -7.37166 -10.3853
LeftArm  -24.5416 -63.0432 -36.3951
LeftForeArm  -7.46028 -20.299 -4.32712
LeftHand  -0.0701207 4.24379 5.15813
RightShoulder  0.779996 3.36328 3.33002
RightArm  -29.5972 68.8865 18.5006
RightForeArm  -28.48 -0.903776 0.565055
RightHand  0.177773 4.89203 1.68759
LeftUpLeg  -22.6757 2.0984 -2.76649
LeftLeg  20.1516 -9.1639 -3.37881
LeftFoot  5.74697 -0.832069 5.30337
LeftToes  -8.31281e-010 4.41007e-011 3.74621e-011
744
root  -55.8928 38.982 6.06292 172.061 -89.2812 -172.77
RightUpLeg  -22.6828 -9.88361 -4.35973
RightLeg  19.2164 3.10041 1.01658
RightFoot  5.72624 -0.26478 2.02519
RightToes  -5.8209e-011 0 -3.6325e-017
Spine  27.1812 -2.10837 7.58461
Spine1  6.86258 1.50865 -8.55963
HEad  -27.562 -8.88301 3.59353
LeftShoulder1  1.85215 -7.77691 -9.00021
LeftArm  -24.4686 -64.0459 -37.5911
LeftForeArm  -6.8849 -19.8285 -4.05772
LeftHand  -0.0315191 5.15391 3.76795
RightShoulder  0.782672 3.4602 3.20091
RightArm  -31.1915 68.2579 16.5098
RightForeArm  -29.6775 -0.954986 0.400094
RightHand  0.200626 5.81237 1.74962
LeftUpLeg  -23.9844 0.514479 -2.47679
LeftLeg  21.5388 -7.86153 -3.08035
LeftFoot  5.20124 -0.85491 5.65732
LeftToes  -8.31281e-010 4.41007e-011 3.74621e-011
745
root  -56.0109 38.9765 6.1434 -175.714 -88.1146 175.748
RightUpLeg  -23.7028 -10.2357 -4.31368
RightLeg  19.439 4.65933 1.6227
RightFoot  5.94242 -0.309204 2.30158
RightToes  -5.8209e-011 0 -3.6325e-017
Spine  27.489 -1.88315 8.43058
Spine1  7.17518 2.42319 -10.0507
HEad  -30.312 -11.3755 6.22107
LeftShoulder1  1.72368 -7.68105 -7.88147
LeftArm  -26.107 -65.2274 -36.9175
LeftForeArm  -7.13389 -20.3193 -4.19474
LeftHand  -0.0353929 5.16912 3.35644
RightShoulder  0.791251 3.17705 3.87989
RightArm  -34.4039 68.9169 12.5794
RightForeArm  -31.8847 -1.65905 0.361933
RightHand  0.120424 5.88716 0.908647
LeftUpLeg  -24.8009 -0.956554 -2.34056
LeftLeg  21.9409 -5.35583 -2.043
LeftFoot  4.92789 -0.833917 5.61899
LeftToes  -8.31281e-010 4.41007e-011 3.74621e-011
746
root  -56.0937 38.9979 6.26539 -176.837 -86.8815 177.386
RightUpLeg  -24.1311 -9.67358 -4.25737
RightLeg  18.9123 5.2072 1.79564
RightFoot  6.44343 -0.341493 2.46426
RightToes  -5.8209e-011 0 -3.6325e-017
Spine  28.0668 -1.61916 8.74397
Spine1  6.64355 2.82704 -10.1778
HEad  -31.8757 -12.9964 7.34017
LeftShoulder1  1.79574 -7.83404 -8.35917
LeftArm  -28.2115 -64.5187 -35.2043
LeftForeArm  -8.52473 -21.3978 -4.6889
LeftHand  -0.0684934 4.229 4.5629
RightShoulder  0.818613 3.60705 3.50207
RightArm  -35.7149 68.7217 12.2286
RightForeArm  -34.3147 -1.95051 -0.0265307
RightHand  0.12296 6.64289 0.837736
LeftUpLeg  -25.1746 -1.68121 -2.18722
LeftLeg  21.9376 -3.52844 -1.23313
LeftFoot  4.6435 -0.808313 5.55176
LeftToes  -8.31281e-010 4.41007e-011 3.74621e-011
747
root  -56.1759 39.0366 6.41619 -174.488 -86.2916 175.247
RightUpLeg  -24.0687 -8.43636 -4.76495
RightLeg  18.3647 4.74033 1.55873
RightFoot  6.76031 -0.377216 2.65931
RightToes  -5.8209e-011 0 -3.6325e-017
Spine  28.112 -1.7752 8.91159
Spine1  6.82454 2.72805 -10.2026
HEad  -32.7467 -14.3595 8.02307
LeftShoulder1  1.87252 -7.84705 -9.09762
LeftArm  -31.3835 -63.3173 -32.582
LeftForeArm  -7.21917 -23.2386 -5.26936
LeftHand  -0.0286104 5.06665 1.9672
RightShoulder  0.816883 3.71202 3.28466
RightArm  -35.9718 68.6364 13.2305
RightForeArm  -35.44 -0.675364 -0.222492
RightHand  0.156099 6.48898 1.17964
LeftUpLeg  -25.0608 -1.46203 -2.56691
LeftLeg  21.607 -3.19146 -1.06124
LeftFoot  4.62641 -0.876956 6.0455
LeftToes  -8.31281e-010 4.41007e-011 3.74621e-011
